<?xml version="1.0" encoding="UTF-8" standalone="no"?>
<!DOCTYPE svg PUBLIC "-//W3C//DTD SVG 1.1//EN" "http://www.w3.org/Graphics/SVG/1.1/DTD/svg11.dtd">
<svg width="100%" height="100%" viewBox="0 0 500 500" version="1.1" xmlns="http://www.w3.org/2000/svg" xmlns:xlink="http://www.w3.org/1999/xlink" xml:space="preserve" xmlns:serif="http://www.serif.com/" style="fill-rule:evenodd;clip-rule:evenodd;stroke-linejoin:round;stroke-miterlimit:2;">
    <g transform="matrix(-6.2102e-16,3.38068,-3.48011,-6.39286e-16,685.014,-167.577)">
        <ellipse cx="123.5" cy="125" rx="17.5" ry="17" style="fill:rgb(50,50,50);"/>
    </g>
    <g transform="matrix(1.67571e-16,2.73664,-2.73664,1.67571e-16,554.989,-92.1533)">
        <path d="M133.123,202.799L116.877,202.799L107.318,172.212C106.525,169.674 104.645,167.62 102.186,166.606C99.728,165.592 96.946,165.723 94.594,166.965L66.39,181.85L54.866,170.397L69.715,141.833C70.938,139.483 71.056,136.711 70.038,134.265C69.02,131.818 66.971,129.949 64.442,129.158L33.674,119.543L33.674,103.296L64.454,93.678C66.982,92.888 69.03,91.019 70.049,88.574C71.067,86.129 70.95,83.359 69.73,81.008L54.908,52.447L66.439,41.003L94.599,55.89C96.951,57.133 99.734,57.266 102.194,56.253C104.654,55.239 106.536,53.184 107.329,50.645L116.877,20.094L133.123,20.094L142.682,50.681C143.475,53.219 145.355,55.273 147.814,56.287C150.272,57.301 153.054,57.169 155.406,55.928L183.61,41.043L195.134,52.496L180.309,81.012C179.087,83.362 178.969,86.134 179.987,88.58C181.005,91.027 183.054,92.897 185.583,93.687L216.333,103.296L216.333,119.543L185.564,129.158C183.036,129.949 180.987,131.818 179.969,134.264C178.951,136.71 179.069,139.482 180.29,141.832L195.135,170.396L183.61,181.85L155.406,166.965C153.054,165.723 150.272,165.592 147.814,166.606C145.355,167.62 143.475,169.674 142.682,172.212L133.123,202.799ZM125.004,65.493C99.641,65.493 79.05,86.084 79.05,111.446C79.05,136.809 99.641,157.399 125.004,157.399C150.366,157.399 170.957,136.809 170.957,111.446C170.957,86.084 150.366,65.493 125.004,65.493Z" style="fill:rgb(50,50,50);"/>
    </g>
</svg>
