<svg xmlns="http://www.w3.org/2000/svg" viewBox="0 0 32 32">
  <rect width="32" height="32" rx="7" fill="#002147"/>
  <!-- flame: 'light' on hatha yoga (dīpikā = lamp) -->
  <path d="M16 4.5c4.3 5 4.5 9 0 13.5-4.5-4.5-4.3-8.5 0-13.5z" fill="#f2c469"/>
  <path d="M16 8c2.6 3.3 2.7 6 0 9.2-2.7-3.2-2.6-5.9 0-9.2z" fill="#e5843a"/>
  <path d="M16 11.4c1.2 1.6 1.2 3 0 4.6-1.2-1.6-1.2-3 0-4.6z" fill="#fff3d6"/>
  <!-- diya (oil lamp) -->
  <path d="M4.8 19.2c3 3.7 19.4 3.7 22.4 0 -1.6 4.6-6 7.3-11.2 7.3s-9.6-2.7-11.2-7.3z" fill="#ecdfc2"/>
  <path d="M4.8 19.2c3 2.1 19.4 2.1 22.4 0 -3 1-19.4 1-22.4 0z" fill="#cbb98f"/>
</svg>
