<?xml version="1.0" encoding="UTF-8" standalone="no"?>
<!DOCTYPE svg PUBLIC "-//W3C//DTD SVG 1.1//EN" "http://www.w3.org/Graphics/SVG/1.1/DTD/svg11.dtd">
<svg width="100%" height="100%" viewBox="0 0 500 500" version="1.1" xmlns="http://www.w3.org/2000/svg" xmlns:xlink="http://www.w3.org/1999/xlink" xml:space="preserve" xmlns:serif="http://www.serif.com/" style="fill-rule:evenodd;clip-rule:evenodd;stroke-linecap:round;stroke-linejoin:round;stroke-miterlimit:1.5;">
    <g id="lightmode" transform="matrix(1,0,0,1,-3,-257)">
        <g transform="matrix(1.46226,0,0,1.45312,88.4953,-35.0156)">
            <ellipse cx="112.5" cy="373" rx="79.5" ry="80" style="fill:none;stroke:white;stroke-width:22.33px;"/>
        </g>
        <g transform="matrix(0.219203,-0.219203,0.149664,0.149664,24.2537,623.499)">
            <path d="M37.5,375L187.5,375" style="fill:none;stroke:white;stroke-width:122.63px;"/>
        </g>
        <g transform="matrix(0.219203,-0.219203,0.149664,0.149664,320.178,327.574)">
            <path d="M37.5,375L187.5,375" style="fill:none;stroke:white;stroke-width:122.63px;"/>
        </g>
        <g transform="matrix(-0.219203,-0.219203,-0.149664,0.149664,185.822,327.574)">
            <path d="M37.5,375L187.5,375" style="fill:none;stroke:white;stroke-width:122.63px;"/>
        </g>
        <g transform="matrix(-0.219203,-0.219203,-0.149664,0.149664,481.746,623.499)">
            <path d="M37.5,375L187.5,375" style="fill:none;stroke:white;stroke-width:122.63px;"/>
        </g>
        <g transform="matrix(0,-0.31,-0.211656,2.25861e-15,332.371,751.125)">
            <path d="M37.5,375L187.5,375" style="fill:none;stroke:white;stroke-width:122.63px;"/>
        </g>
        <g transform="matrix(0,-0.31,-0.211656,2.25861e-15,332.371,332.625)">
            <path d="M37.5,375L187.5,375" style="fill:none;stroke:white;stroke-width:122.63px;"/>
        </g>
        <g transform="matrix(-0.31,-1.8982e-17,2.24565e-15,0.211656,497.125,427.629)">
            <path d="M37.5,375L187.5,375" style="fill:none;stroke:white;stroke-width:122.63px;"/>
        </g>
        <g transform="matrix(-0.31,-1.8982e-17,2.24565e-15,0.211656,78.625,427.629)">
            <path d="M37.5,375L187.5,375" style="fill:none;stroke:white;stroke-width:122.63px;"/>
        </g>
    </g>
</svg>
